<?xml version="1.0" encoding="UTF-8" standalone="no"?> <svg id="Cloud" data-name="Cloud" xmlns="http://www.w3.org/2000/svg" width="64" height="48" viewBox="0 0 50 100">
  <path id="Rectangle_213" data-name="Rectangle 213" d="M10,36a10,10,0,1,1,0-20h2a6.005,6.005,0,0,1,6.809-5.946A10.006,10.006,0,0,1,33,5.338,14,14,0,0,1,57.735,16.721,10,10,0,0,1,54,36Z" transform="translate(10 0)" fill="#AAD3C7"/>
  <path id="Rectangle_213" data-name="Rectangle 213" d="M10,36a10,10,0,1,1,0-20h2a6.005,6.005,0,0,1,6.809-5.946A10.006,10.006,0,0,1,33,5.338,14,14,0,0,1,57.735,16.721,10,10,0,0,1,54,36Z" transform="translate(0 12)" fill="#ecf0f1"/>
</svg>